<?xml version="1.0" standalone="no"?>
<!DOCTYPE svg PUBLIC "-//W3C//DTD SVG 20010904//EN"
 "http://www.w3.org/TR/2001/REC-SVG-20010904/DTD/svg10.dtd">
<svg version="1.0" xmlns="http://www.w3.org/2000/svg"
 width="184.000000pt" height="184.000000pt" viewBox="0 0 184.000000 184.000000"
 preserveAspectRatio="xMidYMid meet">
<metadata>
Created by potrace 1.14, written by Peter Selinger 2001-2017
</metadata>
<g transform="translate(0.000000,184.000000) scale(0.100000,-0.100000)"
fill="#000000" stroke="none">
<path d="M1204 1766 c-19 -14 -19 -36 -21 -848 -2 -659 0 -838 10 -858 10 -19
20 -25 47 -25 27 0 37 6 47 25 10 20 12 199 10 858 -2 812 -2 834 -21 848 -11
8 -27 14 -36 14 -9 0 -25 -6 -36 -14z"/>
<path d="M766 1538 c-14 -20 -16 -97 -16 -639 0 -584 1 -617 18 -632 25 -23
69 -22 82 2 6 13 10 231 10 639 0 587 -1 620 -18 635 -26 23 -58 21 -76 -5z"/>
<path d="M1417 1542 c-15 -17 -17 -76 -17 -639 0 -588 1 -621 18 -636 25 -23
69 -22 82 2 6 13 10 231 10 639 0 587 -1 620 -18 635 -24 22 -55 21 -75 -1z"/>
<path d="M986 1324 c-14 -13 -16 -66 -16 -423 0 -303 3 -410 12 -419 18 -18
63 -14 81 6 15 17 17 60 17 419 0 375 -1 401 -18 416 -23 21 -56 22 -76 1z"/>
<path d="M1617 1322 c-15 -17 -17 -60 -17 -419 0 -375 1 -401 18 -416 22 -20
63 -22 80 -5 9 9 12 116 12 419 0 357 -2 410 -16 423 -21 21 -57 20 -77 -2z"/>
<path d="M549 1104 c-11 -13 -14 -57 -14 -201 0 -182 0 -185 24 -204 30 -25
37 -24 66 6 25 24 25 27 25 192 0 190 -7 216 -56 221 -20 2 -36 -3 -45 -14z"/>
<path d="M177 942 c-21 -23 -22 -52 -3 -77 19 -26 135 -34 170 -11 33 21 41
52 22 81 -15 23 -23 25 -95 25 -63 0 -81 -4 -94 -18z"/>
</g>
</svg>
